<?xml version="1.0" encoding="UTF-8" standalone="no"?> <svg width="64" height="64" viewBox="0 0 64 64" fill="none" xmlns="http://www.w3.org/2000/svg">
<path d="M59 8H5C4.20435 8 3.44129 8.31607 2.87868 8.87868C2.31607 9.44129 2 10.2044 2 11V45C2 45.7956 2.31607 46.5587 2.87868 47.1213C3.44129 47.6839 4.20435 48 5 48H24V54H19C18.2044 54 17.4413 54.3161 16.8787 54.8787C16.3161 55.4413 16 56.2044 16 57V62H48V57C48 56.2044 47.6839 55.4413 47.1213 54.8787C46.5587 54.3161 45.7956 54 45 54H40V48H59C59.7956 48 60.5587 47.6839 61.1213 47.1213C61.6839 46.5587 62 45.7956 62 45V11C62 10.2044 61.6839 9.44129 61.1213 8.87868C60.5587 8.31607 59.7956 8 59 8V8ZM45 56C45.2652 56 45.5196 56.1054 45.7071 56.2929C45.8946 56.4804 46 56.7348 46 57V60H18V57C18 56.7348 18.1054 56.4804 18.2929 56.2929C18.4804 56.1054 18.7348 56 19 56H45ZM38 54H26V48H38V54ZM60 45C60 45.2652 59.8946 45.5196 59.7071 45.7071C59.5196 45.8946 59.2652 46 59 46H5C4.73478 46 4.48043 45.8946 4.29289 45.7071C4.10536 45.5196 4 45.2652 4 45V11C4 10.7348 4.10536 10.4804 4.29289 10.2929C4.48043 10.1054 4.73478 10 5 10H59C59.2652 10 59.5196 10.1054 59.7071 10.2929C59.8946 10.4804 60 10.7348 60 11V45Z" fill="black"/>
<path d="M57 12H7C6.73478 12 6.48043 12.1054 6.29289 12.2929C6.10536 12.4804 6 12.7348 6 13V41C6 41.2652 6.10536 41.5196 6.29289 41.7071C6.48043 41.8946 6.73478 42 7 42H57C57.2652 42 57.5196 41.8946 57.7071 41.7071C57.8946 41.5196 58 41.2652 58 41V13C58 12.7348 57.8946 12.4804 57.7071 12.2929C57.5196 12.1054 57.2652 12 57 12ZM56 40H8V14H56V40Z" fill="black"/>
<path d="M18.826 36.985C19.0871 37.0309 19.3557 36.9713 19.5729 36.8192C19.79 36.6671 19.9379 36.4351 19.984 36.174L21.074 30H25.926L27.016 36.174C27.0569 36.4053 27.1779 36.6149 27.3578 36.7659C27.5377 36.917 27.7651 36.9998 28 37C28.0586 36.9999 28.1172 36.9949 28.175 36.985C28.4361 36.9387 28.6681 36.7906 28.82 36.5732C28.9719 36.3559 29.0312 36.0871 28.985 35.826L25.985 18.826C25.9441 18.5945 25.8229 18.3848 25.6428 18.2338C25.4627 18.0827 25.2351 17.9999 25 18H22C21.7651 18.0002 21.5377 18.083 21.3578 18.2341C21.1779 18.3851 21.0569 18.5947 21.016 18.826L18.016 35.826C17.9698 36.0871 18.0291 36.3559 18.181 36.5732C18.3329 36.7906 18.5649 36.9387 18.826 36.985ZM22.839 20H24.161L25.573 28H21.427L22.839 20Z" fill="black"/>
<path d="M32 37C32.2652 37 32.5196 36.8946 32.7071 36.7071C32.8946 36.5196 33 36.2652 33 36V28H36C37.3261 28 38.5979 27.4732 39.5355 26.5355C40.4732 25.5979 41 24.3261 41 23C41 21.6739 40.4732 20.4021 39.5355 19.4645C38.5979 18.5268 37.3261 18 36 18H32C31.7348 18 31.4804 18.1054 31.2929 18.2929C31.1054 18.4804 31 18.7348 31 19V36C31 36.2652 31.1054 36.5196 31.2929 36.7071C31.4804 36.8946 31.7348 37 32 37ZM33 20H36C36.7956 20 37.5587 20.3161 38.1213 20.8787C38.6839 21.4413 39 22.2044 39 23C39 23.7956 38.6839 24.5587 38.1213 25.1213C37.5587 25.6839 36.7956 26 36 26H33V20Z" fill="black"/>
<path d="M44 37C44.2652 37 44.5196 36.8946 44.7071 36.7071C44.8946 36.5196 45 36.2652 45 36V19C45 18.7348 44.8946 18.4804 44.7071 18.2929C44.5196 18.1054 44.2652 18 44 18C43.7348 18 43.4804 18.1054 43.2929 18.2929C43.1054 18.4804 43 18.7348 43 19V36C43 36.2652 43.1054 36.5196 43.2929 36.7071C43.4804 36.8946 43.7348 37 44 37Z" fill="black"/>
</svg>
